<?xml version="1.0" encoding="UTF-8" standalone="no"?>
<svg
   viewBox="0 0 529.65507 529.65511"
   version="1.1"
   id="svg2"
   sodipodi:docname="dash.svg"
   width="529.65509"
   height="529.65509"
   inkscape:version="1.4 (e7c3feb1, 2024-10-09)"
   xmlns:inkscape="http://www.inkscape.org/namespaces/inkscape"
   xmlns:sodipodi="http://sodipodi.sourceforge.net/DTD/sodipodi-0.dtd"
   xmlns="http://www.w3.org/2000/svg"
   xmlns:svg="http://www.w3.org/2000/svg"
   xmlns:rdf="http://www.w3.org/1999/02/22-rdf-syntax-ns#"
   xmlns:cc="http://creativecommons.org/ns#"
   xmlns:dc="http://purl.org/dc/elements/1.1/">
  <sodipodi:namedview
     id="namedview2"
     pagecolor="#ffffff"
     bordercolor="#000000"
     borderopacity="0.25"
     inkscape:showpageshadow="2"
     inkscape:pageopacity="0.0"
     inkscape:pagecheckerboard="0"
     inkscape:deskcolor="#d1d1d1"
     inkscape:zoom="0.33366751"
     inkscape:cx="247.25212"
     inkscape:cy="325.174"
     inkscape:window-width="1104"
     inkscape:window-height="560"
     inkscape:window-x="0"
     inkscape:window-y="117"
     inkscape:window-maximized="0"
     inkscape:current-layer="svg2" />
  <defs
     id="defs1">
    <style
       id="style1">.cls-1{fill:#008de4;}</style>
  </defs>
  <title
     id="title1">d</title>
  <g
     id="Layer_2"
     data-name="Layer 2"
     transform="matrix(0.94746468,0,0,0.94746468,21.601423,67.375906)">
    <g
       id="Layer_1-2"
       data-name="Layer 1">
      <path
         class="cls-1"
         d="m 336.25,0 h -186.9 l -15.5,86.6 168.7,0.2 c 83.1,0 107.6,30.2 106.9,80.2 -0.4,25.6 -11.5,69 -16.3,83.1 -12.8,37.5 -39.1,80.2 -137.7,80.1 L 91.45,330.1 76,416.8 h 186.5 c 65.8,0 93.7,-7.7 123.4,-21.3 C 451.6,365 490.7,300.2 506.4,215.6 529.65,89.6 500.65,0 336.25,0"
         id="path1" />
      <path
         class="cls-1"
         d="m 68.7,164.9 c -49,0 -56,31.9 -60.6,51.2 C 2,241.3 0,251.6 0,251.6 h 191.4 c 49,0 56,-31.9 60.6,-51.2 6.1,-25.2 8.1,-35.5 8.1,-35.5 z"
         id="path2" />
    </g>
  </g>
  <metadata
     id="metadata2">
    <rdf:RDF>
      <cc:Work
         rdf:about="">
        <dc:title>d</dc:title>
      </cc:Work>
    </rdf:RDF>
  </metadata>
</svg>
