<?xml version="1.0" encoding="UTF-8" standalone="no"?>
<!-- Generator: Adobe Illustrator 28.0.0, SVG Export Plug-In . SVG Version: 6.00 Build 0)  -->

<svg
   version="1.1"
   id="Layer_1"
   x="0px"
   y="0px"
   viewBox="0 0 82.499998 81.199998"
   xml:space="preserve"
   sodipodi:docname="Scroll_FullLogo.8b9fd528.svg"
   width="82.5"
   height="81.199997"
   inkscape:version="1.4 (e7c3feb1, 2024-10-09)"
   xmlns:inkscape="http://www.inkscape.org/namespaces/inkscape"
   xmlns:sodipodi="http://sodipodi.sourceforge.net/DTD/sodipodi-0.dtd"
   xmlns="http://www.w3.org/2000/svg"
   xmlns:svg="http://www.w3.org/2000/svg"><defs
   id="defs13">
	
	
	
	
	
	
	
	
	
	
	
	
	
</defs><sodipodi:namedview
   id="namedview13"
   pagecolor="#ffffff"
   bordercolor="#000000"
   borderopacity="0.25"
   inkscape:showpageshadow="2"
   inkscape:pageopacity="0.0"
   inkscape:pagecheckerboard="0"
   inkscape:deskcolor="#d1d1d1"
   inkscape:zoom="0.32059187"
   inkscape:cx="148.16346"
   inkscape:cy="40.549999"
   inkscape:window-width="1104"
   inkscape:window-height="245"
   inkscape:window-x="0"
   inkscape:window-y="117"
   inkscape:window-maximized="0"
   inkscape:current-layer="Layer_1" />
<style
   type="text/css"
   id="style1">
	.st0{fill:#101010;}
	.st1{fill:#FFEEDA;}
	.st2{fill:#EBC28E;}
</style>
<path
   class="st1"
   d="M 76.5,55.1 V 7.2 C 76.4,3.2 73.2,0 69.2,0 H 19.4 C 8.6,0.2 0,9 0,19.8 c 0,3.6 1,6.8 2.5,9.5 1.3,2.3 3.3,4.4 5.2,6 0.6,0.5 0.3,0.3 2,1.3 2.3,1.4 5,2.1 5,2.1 v 28.6 c 0.1,1.4 0.2,2.7 0.6,3.9 1.1,4 3.9,7.1 7.7,8.6 1.6,0.6 3.4,1 5.3,1.1 L 68,81.1 c 7.9,0 14.4,-6.4 14.4,-14.4 0,-4.7 -2.3,-9 -5.9,-11.6 z"
   id="path7" /><path
   class="st2"
   d="m 77.5,67 c -0.2,5.1 -4.4,9.2 -9.5,9.2 L 40.6,76.1 c 2.2,-2.5 3.5,-5.8 3.5,-9.4 0,-5.6 -3.3,-9.5 -3.3,-9.5 h 27.3 c 5.2,0 9.5,4.3 9.5,9.5 z"
   id="path8" /><path
   class="st0"
   d="M 10.3,31.3 C 7.1,28.3 4.9,24.4 4.9,19.8 V 19.3 C 5.2,11.5 11.6,5.1 19.4,4.9 h 49.9 c 1.3,0.1 2.3,1 2.3,2.3 v 42.3 c 1.1,0.2 1.7,0.4 2.8,0.7 0.9,0.3 2.1,1 2.1,1 V 7.2 C 76.4,3.2 73.2,0 69.2,0 H 19.4 C 8.6,0.2 0,9 0,19.8 c 0,6.3 2.9,11.7 7.5,15.4 0.3,0.3 0.6,0.6 1.5,0.6 1.5,0 2.5,-1.2 2.4,-2.4 0,-1.1 -0.4,-1.5 -1.1,-2.1 z"
   id="path9" /><path
   class="st0"
   d="M 68,52.3 H 28.9 c -2.6,0 -4.7,2.1 -4.7,4.8 v 5.6 c 0.1,2.6 2.3,4.8 4.9,4.8 H 32 v -4.8 h -2.9 v -5.5 c 0,0 0.7,0 1.6,0 4.9,0 8.6,4.6 8.6,9.5 0,4.4 -4,9.9 -10.6,9.5 -5.9,-0.4 -9.1,-5.6 -9.1,-9.5 V 19 c 0,-2.1 -1.8,-3.9 -3.9,-3.9 H 11.8 V 20 h 2.9 v 46.8 c -0.2,9.5 6.8,14.3 14,14.3 l 39.4,0.1 C 76,81.2 82.5,74.8 82.5,66.8 82.4,58.8 76,52.3 68,52.3 Z M 77.5,67 c -0.2,5.1 -4.4,9.2 -9.5,9.2 L 40.6,76.1 c 2.2,-2.5 3.5,-5.8 3.5,-9.4 0,-5.6 -3.3,-9.5 -3.3,-9.5 h 27.3 c 5.2,0 9.5,4.3 9.5,9.5 z"
   id="path10" /><path
   class="st0"
   d="M 57.5,20.8 H 28 V 16 h 29.5 c 1.3,0 2.4,1.1 2.4,2.4 0,1.3 -1,2.4 -2.4,2.4 z"
   id="path11" /><path
   class="st0"
   d="M 57.5,43.8 H 28 v -4.9 h 29.5 c 1.3,0 2.4,1.1 2.4,2.4 0,1.4 -1,2.5 -2.4,2.5 z"
   id="path12" /><path
   class="st0"
   d="M 62.7,32.3 H 28 v -4.9 h 34.7 c 1.3,0 2.4,1.1 2.4,2.4 0,1.4 -1.1,2.5 -2.4,2.5 z"
   id="path13" />
</svg>
