<?xml version="1.0" encoding="UTF-8" standalone="no"?>
<svg
   width="24"
   height="24"
   viewBox="0 0 24 24"
   fill="none"
   version="1.1"
   id="svg1"
   sodipodi:docname="xrp.svg"
   inkscape:version="1.4 (e7c3feb1, 2024-10-09)"
   xmlns:inkscape="http://www.inkscape.org/namespaces/inkscape"
   xmlns:sodipodi="http://sodipodi.sourceforge.net/DTD/sodipodi-0.dtd"
   xmlns="http://www.w3.org/2000/svg"
   xmlns:svg="http://www.w3.org/2000/svg">
  <defs
     id="defs1" />
  <sodipodi:namedview
     id="namedview1"
     pagecolor="#ffffff"
     bordercolor="#000000"
     borderopacity="0.25"
     inkscape:showpageshadow="2"
     inkscape:pageopacity="0.0"
     inkscape:pagecheckerboard="0"
     inkscape:deskcolor="#d1d1d1"
     inkscape:zoom="1.0833333"
     inkscape:cx="11.538462"
     inkscape:cy="12"
     inkscape:window-width="1104"
     inkscape:window-height="245"
     inkscape:window-x="0"
     inkscape:window-y="117"
     inkscape:window-maximized="0"
     inkscape:current-layer="svg1" />
  <path
     d="M18.3602 4.12506H20.9651L15.5459 9.90647C15.0894 10.3888 14.5398 10.7738 13.9304 11.0379C13.3208 11.302 12.6642 11.4399 11.9999 11.4431C11.3357 11.4399 10.6791 11.302 10.0697 11.0379C9.46015 10.7738 8.91055 10.3888 8.45397 9.90647L3.02587 4.12506H5.6398L9.75217 8.5536C10.9565 9.83101 13.0434 9.83101 14.2478 8.5536L18.3602 4.12506ZM5.60436 19.866H3L8.45341 14.1021C8.91081 13.6195 9.46119 13.2346 10.0714 12.9704C10.6817 12.7063 11.3389 12.5685 12.0039 12.5654C12.6688 12.5686 13.3262 12.7064 13.9364 12.9706C14.5467 13.2349 15.0971 13.6199 15.5545 14.1026L21 19.875H18.3949L14.2567 15.4638C13.0518 14.1871 10.9655 14.1871 9.76123 15.4638L5.60436 19.866Z"
     fill="white"
     id="path1"
     style="fill:#888a85" />
</svg>
